<svg preserveAspectRatio="none" overflow="visible" style="display: block;" width="36" height="36" viewBox="0 0 36 36" fill="none" xmlns="http://www.w3.org/2000/svg">
<g id="Frame 2609091">
<path id="Vector" fill-rule="evenodd" clip-rule="evenodd" d="M12.1429 6C8.19314 6 5 9.19314 5 13.1429V23.8571C5 27.8069 8.19314 31 12.1429 31H22.8571C26.8069 31 30 27.8069 30 23.8571V13.1429C30 9.19314 26.8069 6 22.8571 6H12.1429ZM12.5893 13.1429C13.817 13.1429 14.8214 14.1473 14.8214 15.375C14.8214 16.6027 13.817 17.6071 12.5893 17.6071C11.3616 17.6071 10.3571 16.6027 10.3571 15.375C10.3571 14.1473 11.3616 13.1429 12.5893 13.1429ZM22.4107 13.1429C23.6384 13.1429 24.6429 14.1473 24.6429 15.375C24.6429 16.6027 23.6384 17.6071 22.4107 17.6071C21.183 17.6071 20.1786 16.6027 20.1786 15.375C20.1786 14.1473 21.183 13.1429 22.4107 13.1429ZM19.7757 22.1271C20.2701 22.1372 20.76 22.3102 21.1607 22.6428L22.2433 23.5077V23.5088C22.3359 23.5825 22.3951 23.6896 22.4085 23.8079C22.4219 23.9251 22.3873 24.0434 22.3136 24.1361C22.2389 24.2287 22.1317 24.2878 22.0134 24.3012C21.8962 24.3146 21.7779 24.28 21.6853 24.2053L20.5971 23.3336C20.5949 23.3325 20.5927 23.3303 20.5904 23.328C20.1072 22.9251 19.4152 22.9117 18.9163 23.2945C18.1161 23.9508 16.9621 23.9698 16.1395 23.3381V23.3392C16.1373 23.3369 16.135 23.3358 16.1328 23.3336C15.625 22.9273 14.9107 22.9273 14.4029 23.3336L13.3147 24.2053C13.2221 24.28 13.1038 24.3135 12.9866 24.3012C12.8683 24.2878 12.7612 24.2287 12.6875 24.1361C12.6127 24.0434 12.5781 23.9251 12.5915 23.8079C12.6049 23.6896 12.6641 23.5825 12.7567 23.5077L13.8449 22.6372C14.6741 21.9731 15.8616 21.9731 16.6908 22.6372C17.1897 23.0155 17.8761 22.9999 18.3582 22.5992C18.3627 22.5959 18.3672 22.5925 18.3716 22.5892C18.7846 22.2722 19.2812 22.1171 19.7757 22.1271Z" fill="#2A2A2B"/>
</g>
</svg>
